PathFileType	4	(X/Y/Z)	C:\Documents and Settings\rtobon\Desktop\NewMocap\New\NoT\ActorF_TPose.trc
DataRate	CameraRate	NumFrames	NumMarkers	Units	OrigDataRate	OrigDataStartFrame	OrigNumFrames
120.00	120.00	       7	49	mm	120.00	1	       260
Frame#	Time	Root			LtFtHip			LtBkHip			RtFtHip			RtBkHip			Spine1			Spine2			Spine3			SpineOffsetLow			SpineOffsetHigh			LtCtChest			RtCtChest			LtChest			RtChest			LtShoulder			LtBicep			LtElbow			LtForeArm			LtWrist			LtPinky			LtThumb			LtMiddFing			RtShoulder			RtBicep			RtElbow			RtForeArm			RtWrist			RtPinky			RtThumb			RtMiddFing			LtThigh			LtKnee			LtCalf			LtAnkle			LtHeel			LtBall			LtToe			RtThigh			RtKnee			RtCalf			RtAnkle			RtHeel			RtBall			RtToe			TopHead			LfFtHead			LtBkHead			RtFtHead			RtBkHead			
		X1	Y1	Z1	X2	Y2	Z2	X3	Y3	Z3	X4	Y4	Z4	X5	Y5	Z5	X6	Y6	Z6	X7	Y7	Z7	X8	Y8	Z8	X9	Y9	Z9	X10	Y10	Z10	X11	Y11	Z11	X12	Y12	Z12	X13	Y13	Z13	X14	Y14	Z14	X15	Y15	Z15	X16	Y16	Z16	X17	Y17	Z17	X18	Y18	Z18	X19	Y19	Z19	X20	Y20	Z20	X21	Y21	Z21	X22	Y22	Z22	X23	Y23	Z23	X24	Y24	Z24	X25	Y25	Z25	X26	Y26	Z26	X27	Y27	Z27	X28	Y28	Z28	X29	Y29	Z29	X30	Y30	Z30	X31	Y31	Z31	X32	Y32	Z32	X33	Y33	Z33	X34	Y34	Z34	X35	Y35	Z35	X36	Y36	Z36	X37	Y37	Z37	X38	Y38	Z38	X39	Y39	Z39	X40	Y40	Z40	X41	Y41	Z41	X42	Y42	Z42	X43	Y43	Z43	X44	Y44	Z44	X45	Y45	Z45	X46	Y46	Z46	X47	Y47	Z47	X48	Y48	Z48	X49	Y49	Z49	

1	0.000	15.28766	1104.19861	1279.76099	107.64419	1010.35785	1557.39624	110.60026	1070.50708	1279.51514	-161.87859	1032.47107	1524.93640	-112.79281	1070.82556	1263.02820	21.10611	1278.47217	1273.31714	23.37783	1413.34961	1278.36462	15.09018	1531.78137	1332.97485	-65.01776	1200.76819	1272.44690	152.10246	1356.18127	1283.80408	23.51210	1378.63147	1590.37634	-25.24939	1404.23425	1578.17822	106.41161	1452.46228	1563.83484	-95.65637	1454.46680	1555.03027	172.60947	1544.25769	1397.39978	343.74265	1520.18188	1434.44849	496.84076	1498.29773	1404.71399	604.99280	1492.20056	1456.70886	740.06635	1475.38403	1479.64673	795.94580	1422.33557	1445.33081	766.08002	1455.21057	1553.70447	796.60632	1474.04529	1485.00940	-158.54854	1558.67126	1428.06018	-337.49347	1515.18811	1407.00562	-440.77853	1502.31384	1392.60071	-589.99292	1491.87317	1436.04187	-706.29828	1480.12573	1448.91541	-774.51050	1436.61304	1428.30627	-749.50391	1477.85144	1525.09009	-779.42212	1485.80676	1459.97119	213.22240	738.65894	1460.72607	202.38759	578.61395	1411.00757	224.67670	337.20520	1344.52490	200.86588	147.45004	1338.16956	133.26086	50.92438	1269.95996	222.33554	55.12959	1443.94141	173.04425	46.45994	1542.66199	-256.11151	778.28778	1447.29248	-247.85202	552.48248	1422.74414	-270.53601	403.33655	1368.60608	-248.17390	151.33775	1347.96960	-174.60388	50.84044	1263.12683	-277.21552	53.56525	1437.31934	-222.17960	54.71791	1528.76501	-10.09080	1781.36401	1473.66858	61.60010	1709.42834	1596.76587	77.33089	1659.92273	1416.03979	-60.03735	1696.35339	1587.34106	-71.42866	1641.22046	1411.71362	
2	0.008	15.28766	1104.19861	1279.76099	107.71120	1010.34064	1557.51514	110.57544	1070.45166	1279.61169	-161.88434	1032.33179	1524.81042	-112.77959	1070.90405	1263.14307	21.06254	1278.36267	1273.40479	23.74237	1413.29395	1278.68542	14.99611	1531.73364	1332.98694	-65.02016	1200.59961	1272.66333	152.10246	1356.18127	1283.80408	23.40844	1378.60425	1590.59058	-25.27360	1404.20105	1578.19849	106.40398	1452.46716	1563.97571	-95.59608	1454.53149	1555.13098	172.59216	1544.21497	1397.46411	343.71667	1520.17664	1434.46667	496.95193	1498.35242	1405.08948	604.98761	1492.36145	1456.85754	740.08508	1475.36597	1479.67261	796.51483	1424.02527	1444.91992	766.04620	1455.29419	1554.30200	796.63440	1474.04163	1485.35522	-158.57941	1558.63647	1428.14014	-337.48651	1515.26697	1407.14307	-440.78513	1502.16064	1392.66785	-589.93939	1491.75281	1436.10706	-706.31311	1479.79639	1448.91187	-774.49524	1436.45520	1428.35132	-749.51630	1477.71484	1525.05579	-779.30682	1485.41895	1459.95081	213.26714	738.67474	1460.80701	202.43590	578.66016	1411.15881	224.72647	337.04019	1344.59534	200.86588	147.45004	1338.16956	133.17421	50.84636	1269.94922	222.44533	54.98226	1443.87268	173.04425	46.45994	1542.66199	-256.10458	778.22906	1447.35034	-247.85202	552.48248	1422.74414	-270.47107	403.19214	1368.52771	-248.16019	151.24091	1348.12463	-174.60388	50.84044	1263.12683	-277.21552	53.56525	1437.31934	-222.32007	54.73537	1528.72156	-10.03834	1781.34888	1473.28479	61.47426	1709.51709	1596.75940	77.40347	1659.69495	1415.95544	-60.25551	1696.39600	1587.15649	-71.42866	1641.22046	1411.71362	
3	0.017	15.28766	1104.19861	1279.76099	107.77005	1010.36932	1557.54163	110.57544	1070.45166	1279.61169	-161.74342	1032.24597	1524.83960	-112.75134	1070.87329	1263.20874	21.06545	1278.50464	1273.44336	23.41088	1413.26318	1278.53381	15.03257	1531.73145	1333.03699	-64.90574	1200.61230	1272.69983	151.89751	1356.15747	1283.89221	23.41836	1378.64087	1590.83179	-25.12120	1404.24304	1578.38623	106.46604	1452.50452	1564.04248	-95.59608	1454.53149	1555.13098	172.60187	1544.23291	1397.43896	343.74652	1520.22351	1434.52954	497.14154	1498.51538	1405.40198	604.94928	1492.44983	1457.25244	739.96649	1475.40735	1480.00134	796.33777	1423.95703	1445.67859	766.08313	1455.30933	1554.52368	796.57788	1473.95520	1485.68628	-158.72734	1558.66028	1428.32275	-337.51648	1515.23071	1407.06445	-440.80820	1502.14465	1392.73621	-589.88092	1491.63452	1436.06409	-706.31067	1479.71802	1448.84521	-774.45490	1436.31519	1428.40125	-749.50128	1477.70789	1525.19177	-779.46136	1485.11157	1460.05603	213.35478	738.61615	1460.90979	202.48186	578.58282	1411.26453	224.87544	337.27982	1344.66895	200.98418	147.49814	1338.25647	133.26086	50.92438	1269.95996	222.38889	55.03151	1443.89233	173.04425	46.45994	1542.66199	-255.98694	778.09277	1447.36194	-247.99712	552.53778	1422.94263	-270.47107	403.19214	1368.52771	-248.21349	151.31982	1347.99402	-174.60388	50.84044	1263.12683	-277.21552	53.56525	1437.31934	-222.36359	54.68636	1528.73083	-9.99247	1781.37451	1473.24194	61.42439	1709.55774	1596.69727	77.44835	1659.71729	1416.13025	-60.31154	1696.37817	1586.89893	-71.38090	1641.21619	1411.74646	
4	0.025	15.28766	1104.19861	1279.76099	107.76643	1010.33856	1557.56763	110.63146	1070.53223	1279.86292	-161.65627	1032.20667	1524.96057	-112.85247	1071.02502	1263.35242	21.06545	1278.50464	1273.44336	23.62010	1413.24426	1278.92932	14.99995	1531.73499	1333.05273	-64.99670	1200.53821	1272.82007	152.10246	1356.18127	1283.80408	23.48093	1378.64197	1590.88684	-25.05565	1404.35071	1578.69543	106.49857	1452.45801	1564.12646	-95.54229	1454.61536	1555.20422	172.54559	1544.21570	1397.50769	343.79688	1520.29358	1434.82288	497.15506	1498.49097	1405.54199	604.94452	1492.28931	1457.47974	740.16724	1475.31360	1480.31824	796.30157	1424.04211	1445.78381	766.10181	1455.17358	1554.60864	796.54572	1474.11865	1486.09241	-158.72734	1558.66028	1428.32275	-337.54602	1515.13147	1407.24512	-440.80472	1502.05188	1392.86401	-589.92181	1491.57703	1436.19324	-706.35107	1479.62964	1448.88428	-774.52893	1436.06702	1428.52063	-749.54285	1477.59375	1525.29089	-779.42731	1484.84497	1460.44165	213.35010	738.57233	1460.96582	202.52095	578.68408	1411.34009	224.87665	337.15906	1344.66138	200.86588	147.45004	1338.16956	133.11719	50.91909	1269.91711	222.22353	55.06839	1443.95325	173.04425	46.45994	1542.66199	-255.93300	777.94135	1447.41589	-247.82158	552.42426	1422.98755	-270.47107	403.19214	1368.52771	-248.21349	151.31982	1347.99402	-174.60388	50.84044	1263.12683	-277.21552	53.56525	1437.31934	-222.23534	54.66526	1528.68445	-10.00291	1781.39172	1473.22375	61.40691	1709.62720	1596.67004	77.56522	1659.81116	1416.12939	-60.43978	1696.34998	1586.59082	-71.43160	1641.24756	1411.66846	
5	0.033	15.28766	1104.19861	1279.76099	107.86776	1010.40930	1557.74133	110.66473	1070.35889	1279.70654	-161.63544	1032.15515	1525.05383	-112.73566	1070.91223	1263.34216	21.05203	1278.55713	1273.55042	23.35627	1413.14954	1278.93091	14.99995	1531.73499	1333.05273	-64.78042	1200.49609	1273.08704	151.98436	1356.06335	1284.18713	23.56672	1378.72803	1591.03345	-25.12600	1404.33337	1578.81274	106.47739	1452.46484	1564.23596	-95.70207	1454.73694	1555.51843	172.59457	1544.20605	1397.67871	343.84213	1520.30811	1434.91467	497.14365	1498.58337	1405.65979	604.99799	1492.31238	1457.67700	740.02911	1475.21375	1480.46436	796.67609	1424.38269	1446.44543	766.07281	1455.08984	1554.99670	796.60156	1474.00928	1486.25879	-158.72003	1558.72119	1428.42175	-337.65533	1515.06604	1407.21155	-440.85703	1501.94128	1392.91772	-590.08923	1491.31763	1436.31128	-706.32886	1479.41321	1448.95178	-774.70349	1435.85034	1428.75854	-749.52765	1477.53406	1525.35999	-779.59821	1484.60449	1460.79321	213.56612	738.50519	1461.02759	202.67622	578.57269	1411.30322	225.05206	337.28992	1344.72083	200.92714	147.52158	1338.35022	133.30394	50.97147	1269.94666	222.39757	54.98036	1443.94019	173.04425	46.45994	1542.66199	-256.00647	778.06519	1447.54333	-247.82158	552.42426	1422.98755	-270.55469	403.28168	1368.77722	-248.21349	151.31982	1347.99402	-174.60388	50.84044	1263.12683	-277.23422	53.51386	1437.35986	-222.27885	54.61623	1528.69360	-9.92032	1781.47339	1473.21790	61.38951	1709.78528	1596.80505	77.58871	1659.76050	1416.22791	-60.64612	1696.58032	1586.63269	-71.36174	1641.34631	1411.60779	
6	0.042	15.28766	1104.19861	1279.76099	107.93243	1010.34198	1557.77759	110.66473	1070.35889	1279.70654	-161.58005	1032.07935	1525.08240	-112.85262	1070.95300	1263.62488	21.05203	1278.55713	1273.55042	23.55754	1413.25085	1279.04382	14.99995	1531.73499	1333.05273	-64.78042	1200.49609	1273.08704	152.25317	1356.19714	1284.06592	23.54828	1378.70544	1591.08569	-25.01923	1404.34973	1578.86829	106.50372	1452.48694	1564.30322	-95.71084	1454.67712	1555.47583	172.67035	1544.29492	1397.76208	343.97116	1520.34570	1435.09265	497.19653	1498.64771	1405.96545	605.06232	1492.19812	1457.84692	740.30682	1475.08545	1480.83630	796.74756	1424.39294	1446.57861	765.96967	1454.91968	1555.38379	796.71259	1473.93616	1486.56018	-158.70860	1558.63940	1428.36414	-337.56009	1514.95081	1407.24927	-440.80121	1501.75037	1392.97644	-590.08521	1491.16882	1436.47437	-706.29224	1479.18250	1449.07678	-774.37866	1435.13159	1428.70605	-749.57153	1477.21436	1525.27112	-779.61206	1484.58118	1460.81262	213.82661	738.61792	1461.07056	202.71532	578.67395	1411.37866	225.08501	337.30792	1344.68457	200.86588	147.45004	1338.16956	133.25545	50.84195	1269.78052	222.58708	55.09211	1443.92908	173.04425	46.45994	1542.66199	-255.93459	778.11707	1447.48401	-247.96413	552.43805	1423.35083	-270.53427	403.24301	1368.82349	-248.18022	151.28024	1348.41199	-174.60388	50.84044	1263.12683	-277.25168	53.51472	1437.33521	-222.27885	54.61623	1528.69360	-9.81498	1781.47510	1472.98938	61.34372	1709.84912	1596.72400	77.61010	1659.83350	1416.30420	-60.65392	1696.67090	1586.51428	-71.36843	1641.38403	1411.55017	
7	0.050	15.53888	1104.46521	1279.96313	107.93243	1010.34198	1557.77759	110.83161	1070.41736	1280.13635	-161.58005	1032.07935	1525.08240	-112.59949	1070.98389	1263.56360	21.05203	1278.55713	1273.55042	23.59226	1413.30469	1279.15710	15.03627	1531.74146	1333.09448	-64.88560	1200.57605	1273.06189	152.04822	1356.17346	1284.15405	23.45111	1378.76965	1591.22766	-24.97343	1404.41760	1578.93640	106.53618	1452.54553	1564.31140	-95.68969	1454.93420	1555.85059	172.66319	1544.34216	1397.85669	344.17197	1520.35950	1435.23206	497.30002	1498.58691	1406.21143	604.84058	1492.29175	1458.37146	740.18213	1475.05371	1480.98767	796.83472	1424.34888	1446.79272	765.83759	1454.81226	1555.68030	796.84039	1474.11877	1487.10022	-158.71419	1558.58691	1428.40674	-337.60376	1514.83960	1407.25012	-440.86896	1501.61414	1393.08276	-590.14771	1491.02417	1436.75220	-706.32574	1479.17493	1449.06372	-774.66754	1435.16589	1428.87390	-749.74011	1477.02991	1525.46521	-779.64197	1484.54309	1460.84888	213.86966	738.57214	1461.15381	202.71532	578.67395	1411.37866	225.05164	337.24030	1344.77856	201.04544	147.56967	1338.43713	133.30394	50.97147	1269.94666	222.40778	55.05053	1443.98279	173.04425	46.45994	1542.66199	-255.96257	778.04889	1447.51636	-247.90388	552.39465	1423.47327	-270.60629	403.32541	1368.90149	-248.15752	151.44711	1348.32813	-174.60388	50.84044	1263.12683	-277.26764	53.46842	1437.37305	-222.27885	54.61623	1528.69360	-9.80067	1781.56116	1472.85291	61.29259	1709.96350	1596.71326	77.61010	1659.83350	1416.30420	-60.85327	1696.71545	1586.37390	-71.37527	1641.41528	1411.50769	
